<svg xmlns="http://www.w3.org/2000/svg" width="475" height="190" viewBox="0 0 475 190">
  <defs>
    <style>
      .cls-1 {
        fill-rule: evenodd;
      }
    </style>
  </defs>
  <path id="Rounded_Rectangle_4" data-name="Rounded Rectangle 4" class="cls-1" d="M151.8,236H363.2a10,10,0,0,1,10,10V265.2a10,10,0,0,1-10,10H151.8a10,10,0,0,1-10-10V246A10,10,0,0,1,151.8,236ZM101.857,160H124.49a10,10,0,0,1,10,10V340a10,10,0,0,1-10,10H101.857a10,10,0,0,1-10-10V170A10,10,0,0,1,101.857,160ZM62.892,185.939H73.338a10,10,0,0,1,10,10V314.672a10,10,0,0,1-10,10H62.892a10,10,0,0,1-10-10V195.939A10,10,0,0,1,62.892,185.939ZM30,211.267h4.36a10,10,0,0,1,10,10v67.466a10,10,0,0,1-10,10H30a10,10,0,0,1-10-10V221.267A10,10,0,0,1,30,211.267ZM390.51,160h22.633a10,10,0,0,1,10,10V340a10,10,0,0,1-10,10H390.51a10,10,0,0,1-10-10V170A10,10,0,0,1,390.51,160Zm51.152,25.939h10.447a10,10,0,0,1,10,10V314.672a10,10,0,0,1-10,10H441.662a10,10,0,0,1-10-10V195.939A10,10,0,0,1,441.662,185.939Zm38.978,25.328H485a10,10,0,0,1,10,10v67.466a10,10,0,0,1-10,10h-4.36a10,10,0,0,1-10-10V221.267A10,10,0,0,1,480.64,211.267Z" transform="translate(-20 -160)"/>
</svg>
