<svg xmlns="http://www.w3.org/2000/svg" width="84.969" height="9.969" viewBox="0 0 84.969 9.969">
  <path d="M8,10a1.947,1.947,0,0,0,1.4-.577A1.9,1.9,0,0,0,10,8v-2a1.917,1.917,0,0,0-.593-1.4A1.888,1.888,0,0,0,8,4.014H2.01v-2H10v-2H2.01A1.939,1.939,0,0,0,.589.616a1.908,1.908,0,0,0-.577,1.4v2A1.959,1.959,0,0,0,.589,5.432a1.931,1.931,0,0,0,1.42.577H8V8H0.012v2H8Zm6.5-5.985v-2H20.5v2H14.507Zm0,5.985V6.009H20.5a1.947,1.947,0,0,0,1.4-.577A1.9,1.9,0,0,0,22.5,4.014v-2A1.917,1.917,0,0,0,21.9.616,1.888,1.888,0,0,0,20.5.024h-7.99V10h2ZM27,8V2.019H33V8H27ZM33,10a1.947,1.947,0,0,0,1.4-.577A1.9,1.9,0,0,0,34.994,8V2.019A1.917,1.917,0,0,0,34.4.616,1.888,1.888,0,0,0,33,.024H27a1.939,1.939,0,0,0-1.42.592,1.908,1.908,0,0,0-.577,1.4V8a1.959,1.959,0,0,0,.577,1.418A1.931,1.931,0,0,0,27,10H33Zm10.5,0V2.019h3.995v-2H37.5v2h4V10h2Zm12.5,0V2.019h3.995v-2H50v2h4V10h2Zm16.492,0V8h-7.99v-2h7.99v-2h-7.99v-2h7.99v-2h-7.99a1.939,1.939,0,0,0-1.42.592,1.908,1.908,0,0,0-.577,1.4V8a1.959,1.959,0,0,0,.577,1.418,1.931,1.931,0,0,0,1.42.577h7.99Zm4.507-5.985v-2h5.993v2H76.992Zm0,5.985V6.009h5.993V10h2V6.009a1.012,1.012,0,0,0-1-1,0.988,0.988,0,0,0,.7-0.281,0.976,0.976,0,0,0,.3-0.717v-2a1.917,1.917,0,0,0-.593-1.4,1.888,1.888,0,0,0-1.4-.592h-7.99V10h2Z" transform="translate(0 -0.031)" style='fill:currentColor'/>
</svg>
